simulation
nRows=37
nColumns=15
endheader
time  TH_x TH_y TH_z SC_y  SC_z  SC_x  AC_y  AC_z  AC_x  GH_y  GH_z  GH_yy  EL_x  PS_y
0.000000  0.000000  0.000000  0.000000  -31.466906  -1.359473  18.827224  68.239849  9.951369  -2.185989  48.031090  49.548269  -52.649217  24.035837  79.890004
0.000227  0.000000  0.000000  0.000000  -31.466906  -1.359473  8.827224  67.252211  19.210221  1.722960  48.031090  49.548269  -52.649217  24.035837  79.890004
0.000455  0.000000  0.000000  0.000000  -31.466906  -1.359473  11.049447  67.532856  17.158709  0.823843  48.031090  49.548269  -52.649217  24.035837  79.890004
0.000682  0.000000  0.000000  0.000000  -31.466906  -1.359473  13.271669  67.777235  15.103308  -0.055585  48.031090  49.548269  -52.649217  24.035837  79.890004
0.000909  0.000000  0.000000  0.000000  -31.466906  -1.359473  15.493891  67.987020  13.044577  -0.918128  48.031090  49.548269  -52.649217  24.035837  79.890004
0.001137  0.000000  0.000000  0.000000  -31.466906  -1.359473  17.716113  68.163620  10.983037  -1.766413  48.031090  49.548269  -52.649217  24.035837  79.890004
0.001364  0.000000  0.000000  0.000000  -31.466906  -1.359473  19.938336  68.308201  8.919181  -2.602922  48.031090  49.548269  -52.649217  24.035837  79.890004
0.001591  0.000000  0.000000  0.000000  -31.466906  -1.359473  22.160558  68.421706  6.853476  -3.430018  48.031090  49.548269  -52.649217  24.035837  79.890004
0.001819  0.000000  0.000000  0.000000  -31.466906  -1.359473  24.382780  68.504866  4.786368  -4.249972  48.031090  49.548269  -52.649217  24.035837  79.890004
0.002046  0.000000  0.000000  0.000000  -31.466906  -1.359473  26.605002  68.558213  2.718290  -5.064984  48.031090  49.548269  -52.649217  24.035837  79.890004
0.002273  0.000000  0.000000  0.000000  -31.466906  -1.359473  28.827224  68.582086  0.649665  -5.877206  48.031090  49.548269  -52.649217  24.035837  79.890004
0.002501  0.000000  0.000000  0.000000  -45.943614  4.850715  32.337412  63.017885  6.722354  -6.297558  48.664095  47.142474  -48.580720  20.097464  72.078711
0.002728  0.000000  0.000000  0.000000  -45.943614  4.850715  22.337412  62.106317  15.602523  -1.605485  48.664095  47.142474  -48.580720  20.097464  72.078711
0.002955  0.000000  0.000000  0.000000  -45.943614  4.850715  24.559635  62.376319  13.635982  -2.675060  48.664095  47.142474  -48.580720  20.097464  72.078711
0.003183  0.000000  0.000000  0.000000  -45.943614  4.850715  26.781857  62.606724  11.664942  -3.726945  48.664095  47.142474  -48.580720  20.097464  72.078711
0.003410  0.000000  0.000000  0.000000  -45.943614  4.850715  29.004079  62.798900  9.690132  -4.763975  48.664095  47.142474  -48.580720  20.097464  72.078711
0.003637  0.000000  0.000000  0.000000  -45.943614  4.850715  31.226301  62.953973  7.712244  -5.788856  48.664095  47.142474  -48.580720  20.097464  72.078711
0.003865  0.000000  0.000000  0.000000  -45.943614  4.850715  33.448524  63.072842  5.731941  -6.804191  48.664095  47.142474  -48.580720  20.097464  72.078711
0.004092  0.000000  0.000000  0.000000  -45.943614  4.850715  35.670746  63.156194  3.749863  -7.812499  48.664095  47.142474  -48.580720  20.097464  72.078711
0.004319  0.000000  0.000000  0.000000  -45.943614  4.850715  37.892968  63.204504  1.766632  -8.816242  48.664095  47.142474  -48.580720  20.097464  72.078711
0.004546  0.000000  0.000000  0.000000  -45.943614  4.850715  40.115190  63.218050  -0.217140  -9.817843  48.664095  47.142474  -48.580720  20.097464  72.078711
0.004774  0.000000  0.000000  0.000000  -45.943614  4.850715  42.337412  63.196907  -2.200845  -10.819707  48.664095  47.142474  -48.580720  20.097464  72.078711
0.005001  0.000000  0.000000  0.000000  -35.026924  8.136880  27.559110  60.874834  11.186921  3.906748  39.379484  43.667937  -56.302691  26.065579  87.962392
0.005228  0.000000  0.000000  0.000000  -35.026924  8.136880  17.559110  59.489688  19.869112  9.062736  39.379484  43.667937  -56.302691  26.065579  87.962392
0.005456  0.000000  0.000000  0.000000  -35.026924  8.136880  19.781333  59.874025  17.950738  7.877012  39.379484  43.667937  -56.302691  26.065579  87.962392
0.005683  0.000000  0.000000  0.000000  -35.026924  8.136880  22.003555  60.213068  16.025325  6.716789  39.379484  43.667937  -56.302691  26.065579  87.962392
0.005910  0.000000  0.000000  0.000000  -35.026924  8.136880  24.225777  60.508797  14.093797  5.578791  39.379484  43.667937  -56.302691  26.065579  87.962392
0.006138  0.000000  0.000000  0.000000  -35.026924  8.136880  26.447999  60.762917  12.157021  4.459927  39.379484  43.667937  -56.302691  26.065579  87.962392
0.006365  0.000000  0.000000  0.000000  -35.026924  8.136880  28.670221  60.976872  10.215812  3.357263  39.379484  43.667937  -56.302691  26.065579  87.962392
0.006592  0.000000  0.000000  0.000000  -35.026924  8.136880  30.892444  61.151869  8.270944  2.268000  39.379484  43.667937  -56.302691  26.065579  87.962392
0.006820  0.000000  0.000000  0.000000  -35.026924  8.136880  33.114666  61.288884  6.323157  1.189445  39.379484  43.667937  -56.302691  26.065579  87.962392
0.007047  0.000000  0.000000  0.000000  -35.026924  8.136880  35.336888  61.388676  4.373165  0.118992  39.379484  43.667937  -56.302691  26.065579  87.962392
0.007274  0.000000  0.000000  0.000000  -35.026924  8.136880  37.559110  61.451794  2.421659  -0.945898  39.379484  43.667937  -56.302691  26.065579  87.962392
0.007502  0.000000  0.000000  0.000000  -24.406958  -0.733267  20.648654  82.639881  18.973904  10.228195  56.194809  47.273129  -56.084734  31.051633  84.495942
0.007729  0.000000  0.000000  0.000000  -24.406958  -0.733267  10.648654  82.047139  28.885329  11.684012  56.194809  47.273129  -56.084734  31.051633  84.495942
0.007956  0.000000  0.000000  0.000000  -24.406958  -0.733267  12.870876  82.207538  26.684044  11.339985  56.194809  47.273129  -56.084734  31.051633  84.495942
0.008184  0.000000  0.000000  0.000000  -24.406958  -0.733267  15.093098  82.350490  24.481961  11.009000  56.194809  47.273129  -56.084734  31.051633  84.495942
